<?xml version="1.0" standalone="no"?>
<!DOCTYPE svg PUBLIC "-//W3C//DTD SVG 20010904//EN"
 "http://www.w3.org/TR/2001/REC-SVG-20010904/DTD/svg10.dtd">
<svg version="1.0" xmlns="http://www.w3.org/2000/svg"
 width="1280.000000pt" height="1082.000000pt" viewBox="0 0 1280.000000 1082.000000"
 preserveAspectRatio="xMidYMid meet">
<g transform="translate(0.000000,1082.000000) scale(0.100000,-0.100000)"
fill="#000000" stroke="none">
<path d="M8670 10639 l0 -142 -47 -42 c-27 -23 -117 -105 -202 -181 -460 -416
-605 -520 -803 -580 l-48 -15 0 -368 0 -368 46 -119 c26 -65 56 -126 67 -136
21 -16 21 -20 18 -530 -1 -282 -6 -516 -10 -521 -4 -4 -142 11 -306 33 -164
22 -305 40 -312 40 -7 0 -13 -8 -13 -19 0 -15 10 -20 45 -25 52 -8 65 -25 65
-84 0 -21 7 -53 15 -70 9 -17 21 -69 27 -117 16 -115 0 -265 -47 -449 -19 -76
-36 -151 -37 -165 -1 -18 43 -113 132 -282 l133 -254 -12 -786 c-6 -433 -16
-801 -21 -819 -15 -53 -285 -453 -301 -448 -5 2 -103 116 -219 253 -117 138
-221 258 -232 268 -19 16 -97 17 -1323 17 l-1303 0 -183 215 c-112 131 -187
228 -193 248 -4 18 -6 169 -3 337 5 297 6 307 31 380 25 71 27 85 25 250 -1
174 -1 175 22 187 13 7 23 17 22 22 -1 5 -28 44 -59 87 -31 44 -101 171 -156
284 -132 271 -215 435 -277 545 l-51 90 0 118 c0 107 -2 118 -18 115 -15 -3
-17 -20 -20 -155 l-3 -153 -88 -157 c-144 -259 -321 -540 -429 -685 -28 -36
-47 -69 -44 -73 4 -4 22 -13 39 -20 40 -17 40 -18 18 -250 -20 -212 -20 -215
5 -215 11 0 20 -6 20 -14 0 -11 -30 -15 -142 -20 -105 -5 -968 -11 -1498 -11
-1 0 -7 -373 -15 -829 -8 -457 -19 -834 -23 -838 -5 -5 -22 -4 -38 2 -16 6
-60 11 -98 11 -54 0 -81 -6 -123 -26 -66 -33 -155 -114 -240 -219 l-64 -79 2
-108 c2 -60 0 -112 -4 -116 -4 -4 -58 43 -120 105 -62 62 -116 112 -121 112
-5 0 -7 -51 -5 -113 1 -61 2 -283 1 -491 l-2 -379 -60 -60 c-33 -33 -58 -63
-55 -65 3 -3 27 -13 53 -21 l47 -16 0 -345 c0 -511 -14 -1817 -21 -1952 -6
-113 -5 -117 17 -140 53 -52 260 -220 265 -215 3 3 8 333 11 734 3 400 9 737
13 748 7 19 17 21 156 23 81 2 150 5 153 8 3 2 -55 4 -128 3 -125 -1 -134 1
-157 22 l-24 23 2 500 3 501 400 10 c240 7 405 7 413 2 9 -7 12 -51 12 -159 0
-165 -5 -177 -57 -140 -15 11 -57 35 -93 53 -59 30 -73 34 -151 34 -75 0 -90
-3 -121 -25 -175 -123 -177 -125 -183 -155 -3 -16 -6 -133 -7 -260 l-3 -230
290 -8 c160 -4 296 -10 302 -12 14 -5 18 -80 7 -109 -4 -11 -20 -17 -48 -18
-40 -1 -40 -1 -6 -5 19 -3 41 -9 47 -15 10 -8 13 -82 13 -310 0 -338 2 -331
-75 -278 -114 79 -236 114 -309 90 -20 -6 -74 -39 -120 -73 -47 -34 -92 -66
-101 -72 -14 -8 -18 -48 -27 -263 -6 -139 -8 -255 -5 -258 3 -3 143 -9 312
-14 168 -4 309 -11 313 -15 4 -4 7 -86 7 -183 0 -98 3 -182 7 -188 5 -7 75
-13 185 -18 98 -4 192 -9 210 -12 l32 -6 3 780 c2 539 6 784 14 792 7 7 31 6
83 -5 60 -12 176 -15 701 -15 l629 0 18 -24 19 -24 415 33 c306 24 416 30 422
21 7 -10 0 -316 -8 -324 -1 -2 -15 8 -30 22 -65 61 -134 35 -212 -79 -19 -28
-21 -48 -24 -280 l-4 -250 135 -6 c74 -4 136 -7 138 -8 1 0 2 -124 2 -275 l0
-274 23 -6 c12 -3 101 -9 197 -12 201 -6 662 -40 733 -54 26 -6 54 -10 61 -10
21 0 27 56 29 260 l2 185 267 -3 267 -4 3 288 c3 329 10 302 -95 402 -71 68
-119 93 -176 94 -51 0 -92 -23 -172 -98 -38 -35 -75 -64 -84 -64 -14 0 -15 24
-13 193 l3 192 278 3 c259 2 277 1 278 -15 0 -10 1 -315 2 -678 l2 -660 170 0
170 0 3 708 2 708 26 9 c23 9 1821 -6 1852 -16 9 -3 12 -146 12 -671 1 -546 3
-671 14 -686 12 -15 28 -17 132 -15 l119 3 5 125 5 125 1095 6 c602 3 1663 7
2358 8 l1262 1 0 760 0 760 -149 0 -149 0 -77 119 -76 119 -452 6 c-249 3
-783 9 -1187 13 l-735 8 -7 715 c-5 393 -12 1251 -16 1905 l-8 1190 24 75 c13
41 55 139 93 217 58 120 78 152 129 201 33 32 67 75 75 96 35 83 29 283 -16
539 l-21 117 58 195 c31 108 54 198 50 202 -5 6 -647 -21 -768 -32 -29 -2 -50
1 -56 8 -6 8 -6 90 -1 222 5 116 13 325 19 465 l10 255 56 133 56 134 8 312
c5 171 12 357 14 413 l6 101 -91 58 c-111 70 -301 211 -389 289 -36 32 -161
152 -277 267 l-213 210 0 154 c0 147 -1 154 -20 154 -19 0 -20 -7 -20 -141z
m-1106 -5703 c-9 -15 -19 -24 -22 -22 -2 3 3 17 12 32 10 14 20 23 23 21 2 -3
-3 -17 -13 -31z m-4424 -902 c0 -208 4 -322 11 -336 11 -20 15 -20 425 -13
l414 8 0 -167 c0 -91 -4 -166 -8 -166 -4 0 -15 13 -24 28 -23 38 -78 67 -111
58 -34 -8 -81 -49 -116 -100 l-29 -41 -3 -250 -4 -250 140 -6 c77 -3 141 -7
143 -8 1 0 2 -9 2 -20 0 -17 -15 -18 -237 -25 -567 -15 -581 -16 -598 -42 -12
-19 -13 -28 -3 -50 l12 -27 191 7 c104 3 290 9 413 12 l222 7 0 -177 c0 -97
-3 -176 -8 -176 -4 0 -20 13 -35 29 -32 35 -59 45 -92 37 -32 -8 -80 -50 -114
-100 l-29 -41 -3 -250 -4 -250 132 -3 c103 -2 134 -6 144 -18 29 -35 -4 -41
-426 -73 -374 -29 -411 -34 -424 -52 -13 -18 -31 -19 -648 -19 -539 0 -644 2
-703 16 -38 8 -74 21 -80 28 -7 10 -9 160 -7 512 2 275 4 504 4 509 -5 316 -4
1664 1 1672 5 9 93 15 297 23 160 6 380 15 490 19 110 4 305 9 433 9 l232 2 0
-316z m-1890 107 c13 -25 13 -158 0 -166 -5 -3 -46 26 -91 65 -45 38 -85 70
-89 70 -4 0 -15 11 -24 25 l-16 25 104 0 c94 0 106 -2 116 -19z m6737 -130
c-6 -30 -76 -136 -84 -128 -6 7 70 157 80 157 5 0 7 -13 4 -29z m-141 -230
l-26 -50 0 -508 c0 -279 -4 -514 -9 -522 -7 -10 -11 -9 -22 7 -14 19 -38 21
-839 41 -454 12 -871 24 -928 27 l-102 6 2 456 3 457 700 7 c385 4 799 9 920
10 l220 3 5 27 c4 23 88 103 98 93 2 -1 -8 -26 -22 -54z m-2268 -663 l-3 -443
-277 -3 -278 -2 0 65 0 66 168 -6 c92 -3 211 -8 264 -11 l97 -5 3 293 3 293
-47 56 c-25 31 -64 70 -87 88 -23 18 -39 37 -35 42 3 5 48 9 100 9 l94 0 -2
-442z m-408 412 c0 -14 -131 -131 -141 -125 -5 4 -9 35 -9 70 l0 64 63 3 c67
3 87 0 87 -12z m-3920 -280 c0 -5 -9 -10 -21 -10 -11 0 -17 5 -14 10 3 6 13
10 21 10 8 0 14 -4 14 -10z m5300 -590 c212 -5 574 -15 804 -21 406 -11 420
-11 433 7 12 16 15 17 23 4 11 -17 12 -901 2 -990 l-7 -55 -455 4 c-250 2
-473 5 -495 6 -22 1 -241 4 -487 5 l-448 2 0 523 c0 287 3 525 7 529 4 3 59 4
122 1 64 -3 289 -10 501 -15z m-970 -587 c0 -274 -4 -504 -8 -511 -7 -9 -70
-12 -283 -10 l-274 3 0 45 0 45 268 -3 267 -4 0 297 0 297 -72 74 c-80 82
-134 114 -197 114 -56 0 -93 -21 -173 -98 -86 -82 -98 -80 -98 21 0 41 3 108
6 150 l7 77 278 0 279 0 0 -497z"/>
<path d="M2374 3561 c-21 -16 -52 -43 -69 -60 l-30 -32 -5 -232 c-3 -128 -3
-238 -1 -244 2 -10 43 -13 161 -13 l157 0 7 38 c3 20 6 133 6 250 l0 213 -54
55 c-48 47 -60 54 -94 54 -27 0 -51 -9 -78 -29z"/>
<path d="M3371 3423 c-19 -9 -54 -44 -77 -76 l-44 -59 0 -248 0 -247 147 -6
c82 -3 151 -3 155 0 5 2 8 119 8 259 l0 255 -35 55 c-24 37 -47 60 -70 70 -42
17 -42 17 -84 -3z"/>
<path d="M3333 2351 c-17 -11 -49 -44 -71 -73 l-41 -53 -2 -250 -2 -250 149
-6 c82 -3 151 -3 154 -1 3 2 6 115 8 251 4 221 2 251 -13 282 -36 70 -89 119
-130 119 -11 0 -34 -9 -52 -19z"/>
<path d="M2374 2241 c-21 -16 -52 -43 -69 -60 l-30 -32 -5 -232 c-3 -128 -3
-238 -1 -244 2 -10 43 -13 161 -13 l157 0 7 38 c3 20 6 133 6 250 l0 213 -54
55 c-48 47 -60 54 -94 54 -27 0 -51 -9 -78 -29z"/>
<path d="M6345 3551 c-17 -10 -39 -31 -49 -46 -10 -16 -38 -47 -61 -69 l-42
-41 -7 -271 -7 -272 158 -6 c87 -4 187 -8 223 -9 l65 -2 3 269 c3 304 6 289
-87 389 -73 79 -134 97 -196 58z"/>
<path d="M7065 3552 c-17 -11 -42 -34 -56 -53 -15 -19 -42 -50 -62 -69 l-35
-35 -7 -271 -7 -272 158 -6 c88 -4 188 -8 224 -9 l65 -2 3 269 2 270 -26 39
c-37 57 -103 126 -135 143 -38 19 -88 18 -124 -4z"/>
<path d="M6328 2352 c-14 -9 -45 -40 -67 -68 l-41 -51 -6 -256 -7 -255 149 -4
c82 -2 152 -1 155 2 4 3 9 117 11 253 l5 248 -31 52 c-33 55 -85 97 -120 97
-12 0 -33 -8 -48 -18z"/>
<path d="M7045 2350 c-16 -10 -47 -42 -69 -70 l-39 -51 -5 -253 -5 -254 149
-4 c82 -2 152 -1 156 2 4 3 8 119 9 257 l1 253 -29 47 c-32 52 -84 93 -117 93
-12 0 -34 -9 -51 -20z"/>
<path d="M616 8873 c-3 -15 -24 -147 -46 -293 -121 -787 -207 -1151 -281
-1191 -27 -14 -53 -4 -69 26 -7 14 -15 23 -17 21 -3 -2 -8 -89 -13 -193 -6
-103 -13 -245 -16 -316 l-7 -127 -38 -10 c-63 -17 -69 -34 -69 -207 0 -178 6
-198 63 -214 25 -7 198 -9 502 -7 439 3 464 4 484 22 20 18 21 29 21 197 0
172 -1 178 -22 193 -12 9 -35 16 -50 16 -32 0 -37 16 -8 25 11 3 20 12 20 19
0 8 -34 112 -76 232 -137 397 -223 729 -273 1059 -11 72 -37 274 -56 450 -20
176 -38 321 -40 323 -2 2 -6 -9 -9 -25z"/>
<path d="M573 6125 c-11 -8 -36 -38 -54 -67 l-33 -52 -4 -256 -4 -257 62 -6
c107 -12 157 -9 164 9 3 9 6 129 6 267 l0 252 -30 52 c-27 47 -54 73 -77 73
-5 0 -18 -7 -30 -15z"/>
<path d="M541 5094 c-17 -14 -42 -45 -55 -68 -23 -39 -24 -52 -31 -298 l-7
-256 53 -7 c30 -3 81 -5 114 -3 l60 3 3 263 2 262 -25 49 c-22 44 -57 81 -76
81 -4 0 -21 -12 -38 -26z"/>
<path d="M998 1603 c29 -2 74 -2 100 0 26 2 2 3 -53 3 -55 0 -76 -1 -47 -3z"/>
<path d="M788 1593 c29 -2 74 -2 100 0 26 2 2 3 -53 3 -55 0 -76 -1 -47 -3z"/>
<path d="M3333 1271 c-17 -11 -49 -44 -71 -73 l-41 -53 -2 -250 -2 -250 149
-5 c82 -3 151 -4 154 -2 3 2 6 116 9 253 l3 249 -33 56 c-34 56 -81 94 -115
94 -11 0 -33 -9 -51 -19z"/>
<path d="M6333 1273 c-17 -10 -50 -41 -72 -69 l-41 -51 -6 -256 -7 -255 149
-4 c82 -2 152 -1 155 2 4 3 9 117 11 253 l5 248 -31 52 c-31 51 -85 97 -115
97 -9 0 -31 -8 -48 -17z"/>
<path d="M7045 1270 c-16 -10 -47 -42 -69 -70 l-39 -51 -5 -254 -5 -253 149
-4 c82 -2 152 -1 156 2 4 3 8 119 9 258 l1 254 -29 46 c-31 51 -84 92 -117 92
-12 0 -34 -9 -51 -20z"/>
<path d="M2405 1116 c-16 -8 -52 -37 -80 -65 l-50 -52 -5 -232 c-3 -128 -3
-235 0 -239 3 -4 75 -10 161 -14 l156 -7 6 48 c4 26 7 139 7 250 l0 202 -34
45 c-33 42 -87 78 -118 78 -7 -1 -26 -7 -43 -14z"/>
</g>
</svg>
